<svg width="200" height="200" viewBox="0 0 200 200" fill="none" xmlns="http://www.w3.org/2000/svg">
<circle cx="100" cy="100" r="92" fill="#AE2E2C"/>
<path d="M192 100C192 87.9184 189.62 75.9551 184.997 64.7931C180.373 53.6312 173.597 43.4892 165.054 34.9462C156.511 26.4032 146.369 19.6265 135.207 15.0031C124.045 10.3796 112.082 8 100 8L100 100H192Z" fill="#87211F"/>
<circle cx="100" cy="100" r="69" fill="#F5F5F5"/>
<path d="M169 100C169 90.9388 167.215 81.9663 163.748 73.5948C160.28 65.2234 155.198 57.6169 148.79 51.2096C142.383 44.8024 134.777 39.7199 126.405 36.2523C118.034 32.7847 109.061 31 100 31L100 100H169Z" fill="#AAAAAA"/>
<circle cx="100" cy="100" r="46" fill="#AE2E2C"/>
<path d="M146 100C146 93.9592 144.81 87.9775 142.498 82.3966C140.187 76.8156 136.798 71.7446 132.527 67.4731C128.255 63.2016 123.184 59.8133 117.603 57.5015C112.022 55.1898 106.041 54 100 54L100 100H146Z" fill="#87211F"/>
<circle cx="100" cy="100" r="23" fill="#F5F5F5"/>
<path d="M123 100C123 96.9796 122.405 93.9888 121.249 91.1983C120.093 88.4078 118.399 85.8723 116.263 83.7365C114.128 81.6008 111.592 79.9066 108.802 78.7508C106.011 77.5949 103.02 77 100 77L100 100H123Z" fill="#AAAAAA"/>
</svg>
